<svg width="13" height="13" viewBox="0 0 100 100" fill="none" xmlns="http://www.w3.org/2000/svg">
    <path d="M99 47.4001C99 24.5911 75.9346 6 50.031 6C22.6018 6 1 24.5911 1 47.4001C1 70.2421 22.6018 88.7935 50.031 88.7935C55.7696 88.7935 61.5615 87.3695 67.3263 85.9374L83.1414 94.5055L78.804 80.2516C90.379 71.6569 99 60.2654 99 47.4001ZM34.1322 40.2597C31.2631 40.2597 28.3672 37.4347 28.3672 34.552C28.3672 31.7093 31.2631 28.8488 34.1322 28.8488C38.4915 28.8488 41.3476 31.7093 41.3476 34.552C41.3476 37.4347 38.4915 40.2597 34.1322 40.2597ZM65.8409 40.2597C62.994 40.2597 60.1157 37.4347 60.1157 34.552C60.1157 31.7093 62.994 28.8488 65.8409 28.8488C70.165 28.8488 73.0563 31.7093 73.0563 34.552C73.0563 37.4347 70.165 40.2597 65.8409 40.2597Z"
          fill="#C4C4C4"/>
</svg>
